HIERARCHY
ROOT hips
{
  OFFSET 0 10.680822821525009 1.3929502295107734
  CHANNELS 6 Xposition Yposition Zposition Yrotation Xrotation Zrotation
  JOINT spine
  {
    OFFSET -7.042017322922631e-31 0.6058489940359625 0
    CHANNELS 3 Yrotation Xrotation Zrotation
    JOINT chest
    {
      OFFSET 0 1.2699794144455032 0
      CHANNELS 3 Yrotation Xrotation Zrotation
      JOINT upperChest
      {
        OFFSET 0 1.217799211677689 0
        CHANNELS 3 Yrotation Xrotation Zrotation
        JOINT neck
        {
          OFFSET 0 1.5248826104153006 0
          CHANNELS 3 Yrotation Xrotation Zrotation
          JOINT head
          {
            OFFSET 0 0.8197772727844447 0
            CHANNELS 3 Yrotation Xrotation Zrotation
            JOINT leftEye
            {
              OFFSET 0.2793952361220866 0.6769952096623495 0.1830357412467788
              CHANNELS 3 Yrotation Xrotation Zrotation
              End Site
              {
                OFFSET 0.2793952361220866 0.6769952096623495 0.1830357412467788
              }
            }
            JOINT rightEye
            {
              OFFSET -0.27939522230689573 0.676995205357064 0.18303631459760622
              CHANNELS 3 Yrotation Xrotation Zrotation
              End Site
              {
                OFFSET -0.27939522230689573 0.676995205357064 0.18303631459760622
              }
            }
          }
        }
        JOINT leftShoulder
        {
          OFFSET 0.41486978509200423 1.1670505408695453 0
          CHANNELS 3 Yrotation Xrotation Zrotation
          JOINT leftUpperArm
          {
            OFFSET 0.9737926108153417 0 0
            CHANNELS 3 Yrotation Xrotation Zrotation
            JOINT leftLowerArm
            {
              OFFSET 2.5269332222665284 0 0
              CHANNELS 3 Yrotation Xrotation Zrotation
              JOINT leftHand
              {
                OFFSET 2.4263782738425914 0 0
                CHANNELS 3 Yrotation Xrotation Zrotation
                JOINT leftIndexProximal
                {
                  OFFSET 0.724320348022514 0.08170607082582437 0.20360061616140124
                  CHANNELS 3 Yrotation Xrotation Zrotation
                  JOINT leftIndexIntermediate
                  {
                    OFFSET 0.36548960630744587 -0.010566596513783999 -0.01414783573280308
                    CHANNELS 3 Yrotation Xrotation Zrotation
                    JOINT leftIndexDistal
                    {
                      OFFSET 0.22502819650693362 -0.007863819831430696 -0.007567681939621526
                      CHANNELS 3 Yrotation Xrotation Zrotation
                      End Site
                      {
                        OFFSET 0.22502819650693362 -0.007863819831430696 -0.007567681939621526
                      }
                    }
                  }
                }
                JOINT leftLittleProximal
                {
                  OFFSET 0.6720322998298205 0.08170601055037707 -0.3230036039466837
                  CHANNELS 3 Yrotation Xrotation Zrotation
                  JOINT leftLittleIntermediate
                  {
                    OFFSET 0.34583592281688713 5.476543019078406e-8 1.3869203337180114e-7
                    CHANNELS 3 Yrotation Xrotation Zrotation
                    JOINT leftLittleDistal
                    {
                      OFFSET 0.19925728062053938 0.003098047439490381 0.0038303983709246925
                      CHANNELS 3 Yrotation Xrotation Zrotation
                      End Site
                      {
                        OFFSET 0.19925728062053938 0.003098047439490381 0.0038303983709246925
                      }
                    }
                  }
                }
                JOINT leftMiddleProximal
                {
                  OFFSET 0.7300436596551069 0.0817073395107144 0.022661722987926763
                  CHANNELS 3 Yrotation Xrotation Zrotation
                  JOINT leftMiddleIntermediate
                  {
                    OFFSET 0.40758254347686607 -0.0000012383587111308714 2.408460318820138e-7
                    CHANNELS 3 Yrotation Xrotation Zrotation
                    JOINT leftMiddleDistal
                    {
                      OFFSET 0.2514490105498507 0.0000013869132886590307 9.738618134136345e-8
                      CHANNELS 3 Yrotation Xrotation Zrotation
                      End Site
                      {
                        OFFSET 0.2514490105498507 0.0000013869132886590307 9.738618134136345e-8
                      }
                    }
                  }
                }
                JOINT leftRingProximal
                {
                  OFFSET 0.7217261161191838 0.08170601902187746 -0.15043395722184966
                  CHANNELS 3 Yrotation Xrotation Zrotation
                  JOINT leftRingIntermediate
                  {
                    OFFSET 0.37808807487521556 0.0000013754022405443322 2.2046919317952884e-7
                    CHANNELS 3 Yrotation Xrotation Zrotation
                    JOINT leftRingDistal
                    {
                      OFFSET 0.21812105442344254 -0.002713483731960231 -0.004991354517454624
                      CHANNELS 3 Yrotation Xrotation Zrotation
                      End Site
                      {
                        OFFSET 0.21812105442344254 -0.002713483731960231 -0.004991354517454624
                      }
                    }
                  }
                }
                JOINT leftThumbProximal
                {
                  OFFSET 0.10793587079521427 -0.1652791240518252 -0.07775251827190094
                  CHANNELS 3 Yrotation Xrotation Zrotation
                  JOINT leftThumbIntermediate
                  {
                    OFFSET 0.40355819082296684 -0.017484006740276614 0.3177776014416309
                    CHANNELS 3 Yrotation Xrotation Zrotation
                    JOINT leftThumbDistal
                    {
                      OFFSET 0.2318764658022603 -0.018510186824293617 0.21396001800186287
                      CHANNELS 3 Yrotation Xrotation Zrotation
                      End Site
                      {
                        OFFSET 0.2318764658022603 -0.018510186824293617 0.21396001800186287
                      }
                    }
                  }
                }
              }
            }
          }
        }
        JOINT rightShoulder
        {
          OFFSET -0.4148697850920044 1.1670505408695453 0
          CHANNELS 3 Yrotation Xrotation Zrotation
          JOINT rightUpperArm
          {
            OFFSET -0.9737926108153414 0 0
            CHANNELS 3 Yrotation Xrotation Zrotation
            JOINT rightLowerArm
            {
              OFFSET -2.5269332222665293 0 0
              CHANNELS 3 Yrotation Xrotation Zrotation
              JOINT rightHand
              {
                OFFSET -2.42637827384259 0 0
                CHANNELS 3 Yrotation Xrotation Zrotation
                JOINT rightIndexProximal
                {
                  OFFSET -0.724320348022514 0.08170607082582437 0.20360061616140124
                  CHANNELS 3 Yrotation Xrotation Zrotation
                  JOINT rightIndexIntermediate
                  {
                    OFFSET -0.36548960630744587 -0.010566596513783999 -0.01414783573280308
                    CHANNELS 3 Yrotation Xrotation Zrotation
                    JOINT rightIndexDistal
                    {
                      OFFSET -0.22502819650693362 -0.007863819831430696 -0.007567681939621526
                      CHANNELS 3 Yrotation Xrotation Zrotation
                      End Site
                      {
                        OFFSET -0.22502819650693362 -0.007863819831430696 -0.007567681939621526
                      }
                    }
                  }
                }
                JOINT rightLittleProximal
                {
                  OFFSET -0.6720322998298205 0.08170601055037707 -0.3230036039466837
                  CHANNELS 3 Yrotation Xrotation Zrotation
                  JOINT rightLittleIntermediate
                  {
                    OFFSET -0.34583592281688713 5.476543019078406e-8 1.3869203337180114e-7
                    CHANNELS 3 Yrotation Xrotation Zrotation
                    JOINT rightLittleDistal
                    {
                      OFFSET -0.19925728062053938 0.003098047439490381 0.0038303983709246925
                      CHANNELS 3 Yrotation Xrotation Zrotation
                      End Site
                      {
                        OFFSET -0.19925728062053938 0.003098047439490381 0.0038303983709246925
                      }
                    }
                  }
                }
                JOINT rightMiddleProximal
                {
                  OFFSET -0.7300436596551069 0.0817073395107144 0.022661722987926763
                  CHANNELS 3 Yrotation Xrotation Zrotation
                  JOINT rightMiddleIntermediate
                  {
                    OFFSET -0.40758254347686607 -0.0000012383587111308714 2.408460318820138e-7
                    CHANNELS 3 Yrotation Xrotation Zrotation
                    JOINT rightMiddleDistal
                    {
                      OFFSET -0.2514490105498507 0.0000013869132886590307 9.738618134136345e-8
                      CHANNELS 3 Yrotation Xrotation Zrotation
                      End Site
                      {
                        OFFSET -0.2514490105498507 0.0000013869132886590307 9.738618134136345e-8
                      }
                    }
                  }
                }
                JOINT rightRingProximal
                {
                  OFFSET -0.7217261161191838 0.08170601902187746 -0.15043395722184966
                  CHANNELS 3 Yrotation Xrotation Zrotation
                  JOINT rightRingIntermediate
                  {
                    OFFSET -0.37808807487521556 0.0000013754022405443322 2.2046919317952884e-7
                    CHANNELS 3 Yrotation Xrotation Zrotation
                    JOINT rightRingDistal
                    {
                      OFFSET -0.21812105442344254 -0.002713483731960231 -0.004991354517454624
                      CHANNELS 3 Yrotation Xrotation Zrotation
                      End Site
                      {
                        OFFSET -0.21812105442344254 -0.002713483731960231 -0.004991354517454624
                      }
                    }
                  }
                }
                JOINT rightThumbProximal
                {
                  OFFSET -0.10793587079521427 -0.1652791240518252 -0.07775251827190094
                  CHANNELS 3 Yrotation Xrotation Zrotation
                  JOINT rightThumbIntermediate
                  {
                    OFFSET -0.40355819082296684 -0.017484006740276614 0.3177776014416309
                    CHANNELS 3 Yrotation Xrotation Zrotation
                    JOINT rightThumbDistal
                    {
                      OFFSET -0.2318764658022603 -0.018510186824293617 0.21396001800186287
                      CHANNELS 3 Yrotation Xrotation Zrotation
                      End Site
                      {
                        OFFSET -0.2318764658022603 -0.018510186824293617 0.21396001800186287
                      }
                    }
                  }
                }
              }
            }
          }
        }
      }
    }
  }
  JOINT leftUpperLeg
  {
    OFFSET 0.8486251390888677 -0.4421577294694363 0
    CHANNELS 3 Yrotation Xrotation Zrotation
    JOINT leftLowerLeg
    {
      OFFSET 0 -4.10147812638609 0
      CHANNELS 3 Yrotation Xrotation Zrotation
      JOINT leftFoot
      {
        OFFSET -0.0002543926476658853 -4.77292286812444 0.007402811231737388
        CHANNELS 3 Yrotation Xrotation Zrotation
        JOINT leftToes
        {
          OFFSET 0 -0.7027875951174846 1.2062924140498823
          CHANNELS 3 Yrotation Xrotation Zrotation
          End Site
          {
            OFFSET 0 -0.7027875951174846 1.2062924140498823
          }
        }
      }
    }
  }
  JOINT rightUpperLeg
  {
    OFFSET -0.8486251390888677 -0.4421577294694363 0
    CHANNELS 3 Yrotation Xrotation Zrotation
    JOINT rightLowerLeg
    {
      OFFSET 0 -4.10147812638609 0
      CHANNELS 3 Yrotation Xrotation Zrotation
      JOINT rightFoot
      {
        OFFSET 0.0002543926476658853 -4.77292286812444 0.007402811231737388
        CHANNELS 3 Yrotation Xrotation Zrotation
        JOINT rightToes
        {
          OFFSET 0 -0.7027875951174846 1.2062924140498823
          CHANNELS 3 Yrotation Xrotation Zrotation
          End Site
          {
            OFFSET 0 -0.7027875951174846 1.2062924140498823
          }
        }
      }
    }
  }
}
MOTION
Frames: 4
Frame Time: 0.03333333333333333
-0.1064586266875267 -0.5576262196573332 0.3183637857437134 -23.07238877709242 1.3856330661660528 3.134319617576198 -0.31933107793064774 -2.732957997644418 -3.1131132277559 -0.1836560411785729 6.912072627262886 -0.5871697111314945 0 0 0 1.5083715456300237 0.5523921024365741 0.28764037669323766 11.182244166114145 -4.953562443949228 -13.199404077560486 0 0 0 0 0 0 -2.0245928773645114 0.3134321941327348 14.634847869651018 38.80061372474333 -52.383001933909135 -49.05835257026144 -131.62831756737762 -4.849599852076279 14.02222097742233 13.68578765370893 -55.10942499983815 -35.134120812889265 1.253808661634942 0.12883339118552867 -11.733788105074856 0.000016863739379665245 0.0000017417558119907627 -0.00012794632373487364 -0.13349438419761042 0.0014442251365148673 1.240773107168513 5.955693237564839 1.775988532052327 -19.78297921899712 -3.5399982296710903 0.009957427016697364 -5.302705112475434 0.5207047544377332 0.022023136770581247 -4.845141780355279 1.9951675575427164 0.3317122045669408 -18.879055734627908 0.22502923958144275 0.004103203213741064 -2.091846157575612 0.07172279404961167 0.00042191801058582456 -0.6664817820600656 2.313929694374483 0.4506339003131752 -22.039149341725288 0.48238491415426643 0.018887634511714033 -4.487897319209703 0.3235331962688387 0.00849515286550804 -3.0082397139127233 17.554539587504507 -0.9288332849372656 11.291729652584854 7.976345396593735 3.908119539013955 1.1905958949463118 1.607737829948489 -0.5796826548637533 2.5018930031826305 -2.444827633322552 -0.2605897974420306 -8.567750761500353 -17.833638835215556 -75.61558198865691 41.79917375361813 138.86257708292143 -4.058798989937378 -14.677705310137746 9.785587844650742 -45.421979796035416 -11.551552686044625 -0.42967327828665064 0.014824066982675074 3.953129712958972 -0.769657697839964 0.04770397767070051 7.093281795299865 -0.7696282452971326 0.047692044845837896 7.093307634198302 -1.0520444518468914 0.0894259422021359 9.717587092947133 -1.2800984693758803 0.13286015838826773 11.851188522366055 -1.2800796909929468 0.13286806915597835 11.851204264115397 -0.6178465946928668 0.030693714334627323 5.689130103648178 -0.9312645903350026 0.06996627411123216 8.592933862904655 -0.9299672765794126 0.06977473518736128 8.58091686630964 -0.8557466430458476 0.059016486742866414 7.891632688256272 -1.130137290461794 0.10332068775760679 10.446463957253592 -1.125807421895708 0.102504318752341 10.405957669145849 -23.31634661288751 0.3803944121969782 -9.146214447520725 -8.664334838647267 4.592907340545109 -0.8121201437434576 0.11026223976275042 -1.2742538859337174 -2.0989101768052976 6.535129928237405 -12.942656645733788 1.26713724247013 11.786445319542882 29.6287983505537 10.76277903586058 16.11644417198596 -13.398616328130739 -16.697916010108802 0.0000025134656757709133 -0.13316999901553617 -0.000002167021631968602 0.42504292967930735 -23.538312979058126 -10.332792607557254 2.8718008968372803 35.435295612965014 2.1680202166202016 -0.7853024453042976 -13.272853764835174 5.895242761042338 -0.000006093399425318065 -0.9361998725615741 9.324848181424517e-7
-0.12407607585191727 -0.5723614415201261 0.31577545404434204 -22.46590383699453 2.2434301676155237 3.061093031591071 0.62496637458443 -2.2604754757238354 -3.0905030803626663 0.11625384996216291 5.75073195120731 -0.21710238861237394 0 0 0 1.5011546534922764 0.2970350517588355 -0.28302803420302114 10.436999975392284 -5.188357948272096 -13.062521657215122 0 0 0 0 0 0 -0.5718276094945689 0.002836050541665765 15.52759216807562 52.63535665415143 -59.387108618585756 -61.64464097317037 -133.3425360122428 -4.669914323923124 14.186473401561484 7.616341608241275 -56.370676044288935 -23.413653094538347 0.26283834786409177 0.005602007857733941 -2.4435249378074833 0.000013598914349805903 6.237658041298836e-7 -0.00017418958663113497 -0.861406101762932 0.060485151635841984 8.031854504038488 5.143309190373906 0.8494713317683733 -10.26650730052864 -4.062672986848385 -0.016233715693039347 -0.43733563658194485 -0.22375970122397099 0.004059190098272813 2.0800080201742315 1.1238556112935185 0.10328677688047645 -10.503128486721652 -0.000008017600865017069 -8.756346926881031e-7 -0.00003958755498705913 -0.6577584922658125 0.03520588545699218 6.124779176510124 1.459703274843082 0.17526943747833074 -13.69515411318301 0.000006812865782773598 0.000006545734201076642 -0.000057894304188804725 -0.4134977478752837 0.013889339056890595 3.846019130520495 17.554539587504507 -0.9288332849372656 11.291729652584854 7.976345396593735 3.908119539013955 1.1905958949463118 1.607737829948489 -0.5796826548637533 2.5018930031826305 -2.605459270846283 -0.3110463949729583 -9.174828739494341 -16.79816300595279 -75.51582931893937 41.13865523036123 138.88459216445938 -4.056248779289148 -14.679560084590369 12.45033012781974 -44.81066473321164 -14.58148514708841 -0.1756293866791653 0.0024654615023507486 1.614755707452273 -0.6432906479014292 0.0332882161233626 5.924173269960383 -0.6432743205070484 0.03328968688211864 5.924186008171556 -0.8356786713175446 0.05626760768494121 7.705291550105166 -1.172766640461301 0.11132550342157216 10.845149413277056 -1.172777310416376 0.11133095290896067 10.845142705067166 -0.3767741251189009 0.011389013680772404 3.465820836087166 -0.807649044578264 0.052549468469183076 7.44541512291414 -0.8107240719824416 0.05295724894476438 7.473841061181215 -0.6290843175717408 0.0318162534237128 5.792913350992249 -1.014050643914589 0.0830550226727974 9.3632577090651 -1.013791503481322 0.08300577055386338 9.360949069916318 -23.316371053858855 0.3803777632439665 -9.14625936597172 -8.664334838647267 4.592907340545109 -0.8121201437434576 0.11026223976275042 -1.2742538859337174 -2.0989101768052976 5.681602589325986 -14.185973805119497 1.4924746119329733 11.915229121481504 30.176937211666765 10.711067601165954 16.360276497416613 -13.486369639396651 -16.856574148245052 -0.000005918297085375173 -0.16414462466904378 -1.370044830314326e-7 0.5577948424981348 -24.56772217523945 -11.046881371421163 2.592789550476179 35.824276915062185 3.5382334212983193 -0.6700480374495188 -13.42593863134946 5.155348467754939 -0.000007649324706741484 -0.9251972274030442 0.000004367695044706203
-0.15032485127449036 -0.5778670033487394 0.32042932510375977 -22.2507258338013 2.168311358885623 2.6092945461669603 1.8646679232434096 -1.6054735875633597 -3.0189589126126206 0.49497238226703155 5.366675370578179 0.3273638639564035 0 0 0 1.4986413994572985 0.2458585629966655 -0.6637629895939045 9.884296658862 -5.103353864716827 -12.734327606818123 0 0 0 0 0 0 1.161457813106181 -0.3892201761586319 16.344749539865834 64.29589402292493 -63.484772367864515 -72.36893920735206 -135.2012539578567 -4.469555741210612 14.358418647989533 2.0973975825378672 -59.454829653744724 -13.63801362161558 -0.1682939916420297 0.0022994731894531682 1.5643528181120807 0.00001156459127155301 -0.0000034971592060086247 -0.00019186768805525857 -0.9144823934786982 0.06822306049106305 8.530420110768134 4.736353495390286 0.4844486785224745 -6.044721883605242 -4.062665748008104 -0.016234219286108718 -0.43734366715647993 -0.28970144954231997 0.006806763354723317 2.6933258169448933 0.6530959269106661 0.034677586234704495 -6.0812314070647995 0.0000119662876944906 0.000005131912202072975 -0.00009651861826718673 -0.7146287363113318 0.041574397960632 6.656547617069554 1.0009076148155769 0.08177617514938436 -9.343291508881563 -0.0000011243870447694873 -0.000003880165977193704 -0.000020785190483290164 -0.4767718954849574 0.018477424600835048 4.435579109643429 17.554539587504507 -0.9288332849372656 11.291729652584854 7.976345396593735 3.908119539013955 1.1905958949463118 1.607737829948489 -0.5796826548637533 2.5018930031826305 -2.459528607140183 -0.2932027845497997 -9.215607436687957 -15.764019137274722 -74.09275047904947 40.53051577603778 138.91301753677894 -4.05301384502483 -14.681920861855486 14.88209413964542 -43.925228104900675 -16.771162747861915 0.0760459288224761 0.000460483472699374 -0.6990919633596856 -0.5179826055389407 0.021576067840015953 4.767314133145442 -0.5179916765139739 0.021564828709579365 4.767295840514622 -0.5829865016383066 0.027337436318866874 5.367080187760876 -1.0476085927504295 0.08867091857237965 9.676173610529336 -1.0476177692937256 0.0886747338779305 9.676158728838557 -0.12613882410078045 0.0012629328894129537 1.1597613334035142 -0.6791041871630733 0.03710633594623016 6.255143758303718 -0.6867063749510767 0.0379530094456328 6.325553234827396 -0.37805261090296893 0.01149173165710804 3.4775184188964636 -0.8855523161546991 0.06323511146271166 8.168231924059754 -0.8898405136531463 0.06384341888961434 8.208035116003016 -23.316371053858855 0.38039230439683547 -9.146257680097385 -8.664334838647267 4.592907340545109 -0.8121201437434576 0.11026223976275042 -1.2742538859337174 -2.0989101768052976 4.537178766012499 -14.227250843528847 2.215114552526757 11.919022752609632 30.563811040945183 10.622518507783296 17.2528240609588 -13.516068406339087 -17.253161192663573 -0.0000025626089446234096 -0.20749634450077253 -0.000002955234251862353 0.03579634049791046 -24.499021947450977 -10.601532455647881 2.678098383243303 35.89415402043003 4.089393741106598 -0.5976512027466555 -13.515714535144673 4.698425899330267 0.000013722224253246093 -0.9779491461014297 0.0000015303149110978185
-0.18573734164237976 -0.5723805150064543 0.3262895345687866 -22.44939912897687 1.455112106376274 1.9678844916980618 3.4447247167188846 -0.9260512192103213 -2.941683168217542 0.979019404201805 5.571226489063806 1.1611271744980693 0 0 0 1.495591516457991 0.5222934431461118 -0.8127922251006052 9.637313786332918 -4.310336192362527 -12.586797293601071 0 0 0 0 0 0 2.936330350986635 -0.8148840341444109 17.01007667823103 69.29435694145397 -65.72333330983822 -78.19643674275343 -136.8571305194056 -4.286311730704275 14.50608228825933 -2.258643410813905 -61.60777637523728 -6.790095458405251 -0.26824775040016374 0.005840126496129397 2.4938076181486073 0.000029755332565635663 0.000007095268098051667 -0.0002578100946783615 -0.5461229892783277 0.02425343884301491 5.082210345603341 4.544169326730767 0.32977952231516877 -4.1391678098390505 -4.032109093497648 -0.015924070989154635 -0.7214279046412357 0.02841230734488315 0.00006121070204007777 -0.2639887046875453 0.41027290070279265 0.0136704386580253 -3.815836641324723 -0.000020426520807638946 -0.0000013524518478696357 0.00004309640886362973 -0.3652441206668401 0.010830473116613126 3.3965537859491572 0.7294274301883701 0.04330024849913717 -6.7950392422364185 -0.0000010334260306566253 0.00000807044143005086 0.000017496984254523333 -0.1474719949119655 0.0017626461253258644 1.3707147247040237 17.554539587504507 -0.9288332849372656 11.291729652584854 7.976345396593735 3.908119539013955 1.1905958949463118 1.607737829948489 -0.5796826548637533 2.5018930031826305 -1.945342513598458 -0.21005402720096467 -8.72618933822728 -14.351536782609362 -70.74684693638099 39.49026794941709 138.9170775100426 -4.052538384815796 -14.682255128770159 16.249726685053986 -43.09364551137941 -17.701026669490208 0.28877268123949457 0.0066849838824226794 -2.655767131140263 -0.41186396719672225 0.01364478209221587 3.7890445611656505 -0.411870343654094 0.013627188851766886 3.7889795905218566 -0.3319860910048916 0.008839926511377156 3.0532722066564837 -0.9233638713386676 0.06879141401158241 8.519405171207278 -0.9233529871301696 0.06877235750326237 8.51939503896503 0.09714367867148997 0.000766440793987596 -0.8932004532426439 -0.5643938635034739 0.02560014183295574 5.1955600726286075 -0.5760760931739984 0.026681106093016237 5.303285584010317 -0.14012457732858835 0.0015755380663321319 1.2881110261883615 -0.763703867572983 0.046972276730855786 7.038221353337966 -0.772305623303371 0.0480266108400751 7.117865717665572 -23.31637262199098 0.3803920375866909 -9.1462377496835 -8.664334838647267 4.592907340545109 -0.8121201437434576 0.11026223976275042 -1.2742538859337174 -2.0989101768052976 4.014905107157723 -13.334285248138738 3.163231156885521 11.83891845809328 30.56378724413114 10.559628282064601 17.878781547617923 -13.46297954282432 -17.664888641496898 0.0000030223479853418017 -0.2513842380592721 -6.793936605416837e-7 -0.5268462150447581 -23.590432944995758 -9.362719431288285 2.7194804906217436 35.6600846242825 3.731815042196754 -0.5750526394132403 -13.511264408238725 4.569165677534502 -0.000003078196767885766 -1.096586582521658 -8.14028821530901e-7
